<svg width="20" height="20" viewBox="0 0 20 20" fill="none" xmlns="http://www.w3.org/2000/svg">
<path d="M3.37416 4.83501L6.54499 7.62501L9.36999 4.14668C9.44909 4.04944 9.54912 3.9713 9.66261 3.91807C9.7761 3.86485 9.90014 3.83791 10.0255 3.83927C10.1508 3.84064 10.2743 3.87026 10.3866 3.92594C10.4989 3.98161 10.5972 4.06191 10.6742 4.16085L13.37 7.62418L16.6433 4.79418C16.7719 4.68327 16.9312 4.61427 17.1001 4.59641C17.2689 4.57856 17.4392 4.6127 17.5881 4.69426C17.737 4.77583 17.8574 4.90093 17.9332 5.05282C18.0091 5.20471 18.0367 5.37614 18.0125 5.54418L16.7625 14.1667H3.26832L1.99916 5.58335C1.97395 5.41438 2.00128 5.24174 2.07745 5.08882C2.15362 4.9359 2.27495 4.81009 2.42501 4.72842C2.57506 4.64675 2.74659 4.61318 2.91637 4.63224C3.08614 4.65131 3.24595 4.7221 3.37416 4.83501ZM3.33332 15H16.6667V15.8333C16.6667 16.0544 16.5789 16.2663 16.4226 16.4226C16.2663 16.5789 16.0543 16.6667 15.8333 16.6667H4.16666C3.94564 16.6667 3.73368 16.5789 3.5774 16.4226C3.42112 16.2663 3.33332 16.0544 3.33332 15.8333V15Z" fill="white"/>
<ellipse cx="2.32182" cy="4.57737" rx="1.39535" ry="1.39535" transform="rotate(-15.7932 2.32182 4.57737)" fill="white"/>
<ellipse rx="1.39535" ry="1.39535" transform="matrix(0.96225 -0.272166 0.272164 0.962251 9.8625 3.8946)" fill="white"/>
<ellipse cx="17.3354" cy="4.68115" rx="1.39535" ry="1.39535" transform="rotate(-15.7931 17.3354 4.68115)" fill="white"/>
</svg>
