<svg width="285" height="191" viewBox="0 0 285 191" fill="none" xmlns="http://www.w3.org/2000/svg">
<path d="M284.699 77.2105V70.7194L278.402 74.7764L284.699 77.2105Z" fill="#007AFF"/>
<path d="M77.488 188.577L4.19213 146.244C-2.01679 142.663 -1.23479 136.401 5.95603 132.262L182.981 30.0557C190.154 25.9399 200.996 25.4637 207.205 29.0503L280.501 71.3838C286.71 74.9704 285.934 81.2322 278.737 85.3715L101.712 187.578C94.539 191.717 83.6969 192.164 77.488 188.577Z" fill="#007AFF"/>
<path d="M0 140.099V133.35L7.91402 136.336L0 140.099Z" fill="#007AFF"/>
<path d="M77.488 182.868L4.19213 140.535C-2.01679 136.948 -1.23479 130.686 5.95603 126.547L182.981 24.3406C190.154 20.2249 200.996 19.7545 207.205 23.3352L280.501 65.6688C286.71 69.2495 285.934 75.5113 278.737 79.6506L101.712 181.863C94.539 186.002 83.6969 186.455 77.488 182.868Z" fill="white"/>
<path d="M13.039 149.214C13.4159 148.996 13.4173 148.293 13.0423 147.643C12.6672 146.994 12.0577 146.644 11.6808 146.861C11.304 147.079 11.3026 147.782 11.6776 148.431C12.0527 149.081 12.6622 149.431 13.039 149.214Z" fill="white"/>
<path d="M16.5678 151.257C16.9447 151.039 16.9461 150.336 16.571 149.687C16.196 149.037 15.5865 148.687 15.2096 148.904C14.8328 149.122 14.8313 149.825 15.2064 150.474C15.5815 151.124 16.191 151.474 16.5678 151.257Z" fill="white"/>
<path d="M20.093 153.289C20.4698 153.071 20.4712 152.368 20.0962 151.719C19.7211 151.069 19.1116 150.719 18.7348 150.937C18.3579 151.154 18.3565 151.857 18.7315 152.507C19.1066 153.156 19.7161 153.507 20.093 153.289Z" fill="white"/>
<path d="M23.6215 155.332C23.9983 155.115 23.9998 154.412 23.6247 153.762C23.2497 153.113 22.6401 152.762 22.2633 152.98C21.8865 153.197 21.885 153.9 22.2601 154.55C22.6352 155.2 23.2447 155.55 23.6215 155.332Z" fill="white"/>
<path d="M53.9181 172.816C54.2949 172.598 54.2964 171.895 53.9213 171.246C53.5463 170.596 52.9367 170.246 52.5599 170.463C52.1831 170.681 52.1816 171.384 52.5567 172.034C52.9318 172.683 53.5413 173.033 53.9181 172.816Z" fill="white"/>
<path d="M57.4467 174.859C57.8235 174.641 57.8249 173.938 57.4499 173.289C57.0748 172.639 56.4653 172.289 56.0885 172.507C55.7116 172.724 55.7102 173.427 56.0852 174.077C56.4603 174.726 57.0698 175.077 57.4467 174.859Z" fill="white"/>
<path d="M60.9723 176.891C61.3491 176.674 61.3506 175.971 60.9755 175.321C60.6005 174.672 59.9909 174.321 59.6141 174.539C59.2373 174.756 59.2358 175.459 59.6109 176.109C59.9859 176.759 60.5955 177.109 60.9723 176.891Z" fill="white"/>
<path d="M64.5008 178.935C64.8777 178.717 64.8791 178.014 64.5041 177.364C64.129 176.715 63.5195 176.365 63.1426 176.582C62.7658 176.8 62.7644 177.503 63.1394 178.152C63.5145 178.802 64.124 179.152 64.5008 178.935Z" fill="white"/>
<path d="M42.9389 167.175L33.2492 161.578C32.9104 161.336 32.6333 161.018 32.4402 160.649C32.2472 160.28 32.1436 159.871 32.138 159.455C32.138 158.638 32.6319 158.279 33.2492 158.614L42.9389 164.212C43.2777 164.454 43.5549 164.772 43.7479 165.141C43.941 165.509 44.0445 165.918 44.0502 166.334C44.0502 167.152 43.5563 167.528 42.9389 167.175Z" fill="white"/>
<path d="M262.515 93.2562L253.501 98.4597C252.914 98.7889 252.467 98.4597 252.467 97.6777C252.473 97.2904 252.569 96.9099 252.749 96.5667C252.929 96.2236 253.186 95.9275 253.501 95.7021L262.515 90.4986C263.103 90.1693 263.544 90.4986 263.544 91.2806C263.539 91.6674 263.443 92.0476 263.264 92.3907C263.086 92.7337 262.829 93.0302 262.515 93.2562Z" fill="white"/>
<path d="M248.709 101.247L239.696 106.45C239.108 106.779 238.661 106.45 238.661 105.668C238.667 105.282 238.764 104.902 238.944 104.56C239.124 104.218 239.381 103.923 239.696 103.698L248.709 98.4949C249.297 98.1657 249.738 98.4949 249.738 99.2769C249.733 99.6629 249.637 100.042 249.459 100.384C249.28 100.727 249.023 101.022 248.709 101.247Z" fill="white"/>
<path d="M77.488 181.827L4.19215 139.494C-2.01677 135.907 -1.23478 129.651 5.95605 125.512L182.981 23.2882C190.154 19.1724 200.996 18.6962 207.205 22.2828L280.501 64.6163C286.71 68.2029 285.934 74.4648 278.737 78.604L101.712 180.828C94.539 184.979 83.6969 185.414 77.488 181.827Z" fill="#5AA9FF"/>
<path d="M272.64 66.3038L244.023 49.7819L243.953 49.8231C240.572 51.7751 235.092 51.7751 231.711 49.8231C228.331 47.871 228.331 44.7078 231.711 42.7675L231.782 42.6911L203.166 26.1692C198.821 23.6586 191.771 23.6586 187.426 26.1692L14.9813 125.753C10.6362 128.264 10.6362 132.332 14.9813 134.837L84.4495 174.948C88.8004 177.459 95.8443 177.459 100.189 174.948L272.64 75.3879C276.985 72.8831 276.985 68.8144 272.64 66.3038Z" fill="white"/>
<path opacity="0.5" d="M272.64 75.3878L100.195 174.983C96.2674 177.247 90.1231 177.465 85.7722 175.63C85.3233 175.439 84.8855 175.224 84.461 174.983L14.9869 134.837C14.0265 134.322 13.1929 133.598 12.5469 132.72C10.9065 130.398 11.7178 127.64 14.9869 125.753L187.426 26.1927C191.771 23.688 198.815 23.688 203.165 26.1927L231.782 42.7204C231.756 42.7274 231.732 42.7394 231.711 42.7557C228.33 44.7077 228.33 47.871 231.711 49.8113C235.092 51.7516 240.578 51.7633 243.953 49.8113L244.017 49.7701L272.64 66.292C276.985 68.8144 276.985 72.8772 272.64 75.3878Z" fill="url(#paint0_linear)"/>
<path d="M235.95 49.2704C237.766 49.2704 239.237 48.4201 239.237 47.3713C239.237 46.3224 237.766 45.4721 235.95 45.4721C234.135 45.4721 232.664 46.3224 232.664 47.3713C232.664 48.4201 234.135 49.2704 235.95 49.2704Z" fill="white"/>
<path opacity="0.1" d="M234.98 47.9357C234.86 47.8985 234.756 47.8239 234.681 47.7229C234.607 47.6219 234.567 47.4997 234.567 47.3742C234.567 47.2487 234.607 47.1266 234.681 47.0255C234.756 46.9245 234.86 46.8499 234.98 46.8127C235.282 46.6589 235.615 46.5787 235.953 46.5787C236.292 46.5787 236.625 46.6589 236.926 46.8127C237.046 46.8499 237.151 46.9245 237.225 47.0255C237.3 47.1266 237.34 47.2487 237.34 47.3742C237.34 47.4997 237.3 47.6219 237.225 47.7229C237.151 47.8239 237.046 47.8985 236.926 47.9357C236.625 48.0895 236.292 48.1697 235.953 48.1697C235.615 48.1697 235.282 48.0895 234.98 47.9357Z" fill="white"/>
<path d="M219.473 19.5309L188.282 1L191.24 45.7643L222.801 63.9255L219.473 19.5309Z" fill="#697DE9"/>
<path d="M188.282 1.00021L186.993 8.39462L177.291 7.06138L174.333 57.3716L191.239 45.7645L188.282 1.00021Z" fill="#8194F9"/>
<path d="M222.805 63.92L209.596 65.5277L205.899 75.5326L208.582 25.4969L209.596 20.8642L219.478 19.5309L222.805 63.92Z" fill="#8194F9"/>
<path d="M209.596 20.8642V65.5277L205.899 75.5325L208.582 25.4969L209.596 20.8642Z" fill="#6880FE"/>
<path d="M208.857 25.2223L177.29 7.06113L174.333 57.3713L205.899 75.5324L208.857 25.2223Z" fill="#6E8CF7"/>
<path d="M186.246 24.1633C186.847 23.812 186.842 22.6849 186.234 21.6459C185.627 20.607 184.647 20.0496 184.046 20.4009C183.446 20.7522 183.451 21.8792 184.058 22.9182C184.666 23.9572 185.645 24.5146 186.246 24.1633Z" fill="#697DE9"/>
<path d="M199.159 31.621C199.76 31.2696 199.754 30.1426 199.147 29.1036C198.539 28.0646 197.56 27.5072 196.959 27.8585C196.358 28.2098 196.363 29.3369 196.971 30.3759C197.578 31.4148 198.558 31.9723 199.159 31.621Z" fill="#697DE9"/>
<path d="M193.391 39.0254C192.668 39.0254 191.923 38.8069 191.167 38.37C187.481 36.2413 184.501 29.2222 184.389 22.3935C184.383 22.0518 184.652 21.7717 184.994 21.7661C184.999 21.7661 184.999 21.7661 185.005 21.7661C185.341 21.7661 185.616 22.035 185.621 22.3712C185.728 28.7012 188.495 35.3954 191.783 37.3C192.797 37.8826 193.727 37.9443 194.551 37.4737C196.22 36.5214 197.29 33.5524 197.329 29.7264C197.335 29.3847 197.604 29.1157 197.951 29.1157C198.293 29.1213 198.561 29.4014 198.561 29.7375C198.511 34.0621 197.24 37.3561 195.161 38.5437C194.607 38.8686 194.007 39.0254 193.391 39.0254Z" fill="white"/>
<path d="M203.11 47.6412L179.083 33.3677V61.0015L205.675 75.7904L203.11 47.6412Z" fill="#4A56C7"/>
<path d="M179.084 33.3676L178.092 39.059L169.97 38.1179L167.69 70.8271L179.084 59.5729V33.3676Z" fill="#418BD0"/>
<path d="M205.675 75.7903L195.502 77.0283L192.006 84.8148L194.073 52.3185L195.502 48.6661L203.115 47.641L205.675 75.7903Z" fill="#418BD0"/>
<path d="M195.502 48.6662V77.0283L192.006 84.8149L194.073 52.3186L195.502 48.6662Z" fill="#2569D0"/>
<path d="M187.794 48.3748L169.969 38.1179L167.689 70.827L192.006 84.8148L194.281 52.1056L192.046 50.8228" fill="#498AEB"/>
<path d="M176.365 50.8895C176.851 50.6054 176.845 49.6908 176.352 48.8468C175.858 48.0028 175.064 47.549 174.578 47.8332C174.092 48.1174 174.098 49.0319 174.592 49.8759C175.085 50.7199 175.879 51.1737 176.365 50.8895Z" fill="#4A56C7"/>
<path d="M186.852 56.9464C187.338 56.6622 187.332 55.7476 186.839 54.9036C186.345 54.0596 185.551 53.6058 185.065 53.89C184.579 54.1742 184.585 55.0887 185.079 55.9327C185.572 56.7767 186.366 57.2306 186.852 56.9464Z" fill="#4A56C7"/>
<path d="M182.165 63.0236C181.633 63.0236 181.017 62.878 180.333 62.4859C177.319 60.7493 174.888 55.0242 174.798 49.4616C174.793 49.1535 175.039 48.8958 175.347 48.8902C175.353 48.8902 175.353 48.8902 175.359 48.8902C175.661 48.8902 175.913 49.1367 175.919 49.4392C176.003 54.5593 178.238 59.9763 180.893 61.5112C181.694 61.9761 182.434 62.0209 183.084 61.6512C184.422 60.8894 185.274 58.4974 185.313 55.4108C185.319 55.1027 185.565 54.8562 185.873 54.8562H185.879C186.187 54.8618 186.439 55.1139 186.434 55.422C186.394 58.9567 185.347 61.6512 183.638 62.6203C183.263 62.8388 182.764 63.0236 182.165 63.0236Z" fill="white"/>
<path d="M169.969 64.7212C169.969 64.7212 169.969 64.8108 169.969 100.147C169.969 101.649 169.173 103.032 167.868 103.783C136.392 121.961 138.397 121.048 136.828 121.07C135.96 121.07 135.092 120.773 134.694 120.51C134.649 120.482 129.389 117.451 123.35 113.961C115.183 109.245 105.587 103.699 105.531 103.654C104.797 103.183 104.237 102.489 103.923 101.688C103.733 101.206 103.632 100.685 103.632 100.153L103.643 67.1243L103.671 64.6596L103.923 64.5139L117.508 56.6826L124.062 52.8957L136.862 45.5405L136.873 45.5461L149.354 52.8789L155.919 56.6657L169.969 64.7212Z" fill="#1761B1"/>
<path d="M136.868 45.5349V113.961H123.351C115.183 109.245 105.587 103.699 105.531 103.654C104.797 103.183 104.237 102.489 103.924 101.688V64.5139L117.508 56.6826L124.062 52.8957L136.862 45.5405L136.868 45.5349Z" fill="#0C4D95"/>
<path d="M136.833 112.785L136.861 86.49V83.8627L139.13 82.5631L150.692 75.8913L157.302 72.0765L168.108 65.8416C168.445 65.6455 169.963 64.7156 169.963 64.7156C169.963 64.7156 169.963 66.9172 169.963 67.1805V100.142C169.963 101.643 169.167 103.027 167.862 103.777L157.302 109.878L150.692 113.693L138.906 120.499C138.262 120.863 137.539 121.053 136.828 121.059L136.833 117.418" fill="#007AFF"/>
<path d="M136.834 116.846L136.828 121.07C136.156 121.07 135.478 120.919 134.873 120.594L122.818 113.636L116.286 109.866L105.525 103.654C104.506 102.999 103.817 101.912 103.66 100.702V66.8779C103.66 66.4185 103.66 64.654 103.66 64.654C103.66 64.654 105.111 65.5279 105.553 65.7799L116.286 71.9811L122.818 75.7568L134.599 82.563C135.299 82.972 136.868 83.8739 136.868 83.8739C136.868 83.8739 136.868 85.6777 136.868 86.4899V86.5012L136.839 113.967" fill="#1769C4"/>
<path d="M96.1423 63.668L84.3896 62.2059C83.6109 62.1107 83.2692 63.1527 83.9526 63.5336L116.835 82.042C117.25 82.2717 117.709 82.4118 118.18 82.4454L136.61 83.717L103.66 64.5979L99.2792 64.0545" fill="#5BA4F3"/>
<path d="M169.94 64.7437L136.8 45.6246L146.496 29.3344C147.129 28.2757 148.491 27.9116 149.566 28.5166L178.461 44.7788C179.553 45.395 179.939 46.773 179.334 47.8653L169.94 64.7437Z" fill="#5BA4F3"/>
<path d="M127.021 77.0177C126.596 77.0177 126.252 76.6731 126.252 76.2485V65.3063C126.252 64.8817 126.596 64.537 127.021 64.537C127.445 64.537 127.79 64.8817 127.79 65.3063V76.2485C127.79 76.6731 127.445 77.0177 127.021 77.0177Z" fill="url(#paint1_linear)"/>
<path d="M156.242 67.2326C155.817 67.2326 155.473 66.8879 155.473 66.4633V57.6505C155.473 57.2259 155.817 56.8813 156.242 56.8813C156.667 56.8813 157.011 57.2259 157.011 57.6505V66.4633C157.011 66.8879 156.667 67.2326 156.242 67.2326Z" fill="url(#paint2_linear)"/>
<path d="M149.226 67.5773C148.801 67.5773 148.456 67.2326 148.456 66.808V62.5616C148.456 62.1369 148.801 61.7923 149.226 61.7923C149.65 61.7923 149.995 62.1369 149.995 62.5616V66.808C149.995 67.2326 149.65 67.5773 149.226 67.5773Z" fill="url(#paint3_linear)"/>
<path d="M119.685 63.9154C119.261 63.9154 118.916 63.5708 118.916 63.1461V60.8814C118.916 60.4568 119.261 60.1122 119.685 60.1122C120.11 60.1122 120.455 60.4568 120.455 60.8814V63.1461C120.455 63.5708 120.11 63.9154 119.685 63.9154Z" fill="url(#paint4_linear)"/>
<path d="M126.127 7.82837L129.068 10.7639" stroke="url(#paint5_linear)" stroke-width="2" stroke-miterlimit="10" stroke-linecap="round" stroke-linejoin="round"/>
<path d="M150.67 4.48038L145.002 10.1484" stroke="url(#paint6_linear)" stroke-width="2" stroke-miterlimit="10" stroke-linecap="round" stroke-linejoin="round"/>
<path d="M137.075 8.54823V1.69861" stroke="url(#paint7_linear)" stroke-width="2" stroke-miterlimit="10" stroke-linecap="round" stroke-linejoin="round"/>
<path d="M137.496 62.9742L136.013 59.7128C147.152 45.4813 149.524 31.4654 149.935 24.2823C151.188 22.7931 152.859 20.7986 152.859 20.7986L149.679 18.5884C147.711 19.215 146.357 19.8552 145.137 19.1948L145.555 17.2339L142.375 15.0237C142.375 15.0237 140.724 14.6059 134.794 18.029L133.85 18.5749C127.921 21.998 126.256 24.3295 126.256 24.3295C125.36 28.4938 122.887 33.0354 118.952 36.3238C118.952 36.3238 117.389 61.613 134.929 62.361L134.976 62.462C135.279 62.0982 135.158 60.7707 135.447 60.4068L137.496 62.9742Z" fill="#007AFF"/>
<path d="M152.852 20.7919C148.917 22.0452 146.444 20.3606 145.548 17.2272C145.548 17.2272 143.897 16.8094 137.967 20.2325L137.024 20.7784C131.094 24.2015 129.43 26.533 129.43 26.533C128.533 30.6973 126.061 35.239 122.125 38.5273C122.125 38.5273 119.942 62.2128 137.489 62.9607C155.036 41.9571 152.852 20.7919 152.852 20.7919Z" fill="url(#paint8_linear)"/>
<path opacity="0.3" d="M147.408 18.2987C147.408 18.2987 145.758 17.8877 139.828 21.3041L138.884 21.8566C132.954 25.2797 131.29 27.6112 131.29 27.6112C130.394 31.7755 127.921 36.3172 123.986 39.6055C123.986 39.6055 122.2 59.0121 134.875 63.2438C119.356 60.8046 122.2 38.433 122.2 38.433C126.135 35.1447 128.602 30.6098 129.504 26.4387C129.504 26.4387 130.825 24.1072 136.748 20.6841L137.692 20.1316C143.621 16.7085 145.616 17.1195 145.616 17.1195L147.408 18.2987Z" fill="#007AFF"/>
<path opacity="0.3" d="M154.713 21.8631C151.855 22.7728 149.767 22.1327 148.5 20.5155C149.356 20.4279 150.333 20.037 151.539 19.6462L154.713 21.8631Z" fill="#007AFF"/>
<path opacity="0.3" d="M154.8 24.215C154.8 25.6368 154.726 27.6583 154.423 30.1246C154.356 30.6771 154.281 31.2566 154.187 31.8496C153.722 34.8886 152.934 38.4802 151.6 42.4154C151.263 43.4059 150.892 44.4167 150.488 45.4544C150.259 46.0339 150.016 46.6202 149.76 47.2199C149.133 48.6889 148.419 50.1915 147.617 51.7144C147.455 52.0311 147.28 52.3478 147.112 52.6645C146.957 52.9542 146.795 53.2508 146.627 53.5472C145.508 55.5283 144.241 57.5431 142.799 59.5713C142.496 60.0026 142.186 60.4271 141.869 60.8516C141.074 61.9096 140.239 62.9742 139.349 64.0389C129.835 63.6346 126.122 56.4785 124.713 50.0231C124.558 49.3088 124.43 48.5945 124.323 47.9072C123.635 43.3453 123.979 39.6055 123.979 39.6055C124.06 39.5381 124.14 39.4707 124.215 39.4034C124.477 39.1743 124.734 38.9451 124.99 38.7025C125.259 38.4465 125.515 38.1904 125.771 37.9209C126.937 36.6945 127.941 35.3535 128.763 33.9587C129.086 33.4129 129.383 32.8536 129.653 32.3011C130.138 31.3105 130.535 30.2998 130.839 29.3025C131.02 28.7365 131.169 28.1705 131.29 27.6112C131.29 27.6112 132.907 25.347 138.615 22.0115C138.702 21.9576 138.79 21.9105 138.884 21.8565L139.828 21.304C139.942 21.2366 140.05 21.176 140.165 21.1153C145.818 17.9011 147.408 18.2987 147.408 18.2987C148.304 21.432 150.777 23.1099 154.713 21.8633C154.713 21.8633 154.8 22.7056 154.8 24.215Z" fill="url(#paint9_linear)"/>
<path d="M151.345 34.3494C150.112 41.3776 146.985 51.1819 139.249 61.02C139.222 61.0132 139.202 61.0132 139.175 61.0132V42.7117C143.569 40.3398 146.56 38.8439 151.345 34.3494Z" fill="url(#paint10_linear)"/>
<path d="M138.621 25.3065C135.65 27.0248 133.938 28.3792 133.089 29.1407C131.843 33.433 129.39 37.604 126.223 40.8654C126.216 42.6443 126.337 45.4476 126.991 48.4125C131.775 47.3815 134.767 45.4206 139.161 42.7252V24.9965L138.621 25.3065Z" fill="url(#paint11_linear)"/>
<path d="M108.51 122.303C108.51 123.44 107.905 124.494 106.913 125.065C83.0269 138.857 84.5505 138.168 83.3573 138.185C82.7019 138.185 82.041 137.96 81.7385 137.759C81.6544 137.708 59.6784 125.031 59.6056 124.964C58.7093 124.387 58.1602 123.384 58.1602 122.303L58.1659 97.2406C58.1659 96.1034 58.7709 95.0503 59.7568 94.4789L68.6917 89.3141L73.6661 86.4403L81.3015 82.0261C82.5115 81.3258 84.0016 81.3258 85.2172 82.0261L92.8524 86.4291L97.8382 89.3028L106.908 94.5293C107.725 94.9999 108.28 95.7954 108.454 96.7029C108.532 97.1566 108.51 95.4872 108.51 122.303Z" fill="#6E8CF7"/>
<path d="M108.51 97.2903V122.302C108.51 123.44 107.905 124.493 106.913 125.064L98.897 129.691L93.8778 132.587L84.9316 137.752C84.4443 138.032 83.8953 138.173 83.3519 138.178L83.3799 111.939V111.933C83.3799 110.701 84.0354 109.575 85.0997 108.964L93.8722 103.9L98.8914 101.004L107.093 96.2707C107.608 95.9738 108.224 96.2147 108.443 96.6964C108.487 96.8925 108.51 97.0886 108.51 97.2903Z" fill="url(#paint12_linear)"/>
<path d="M79.526 107.721L81.6604 108.953C82.7247 109.569 83.3802 110.701 83.3802 111.933V111.939L83.3521 138.178C82.8424 138.178 82.3271 138.066 81.8677 137.814L72.7199 132.531L67.7622 129.669L59.5948 124.952C58.8217 124.454 58.3007 123.63 58.1775 122.711V97.0437C58.1775 96.3042 58.973 95.8505 59.6116 96.209L67.7566 100.915L72.7142 103.777L76.8708 106.18" fill="url(#paint13_linear)"/>
<path d="M78.4112 100.511L97.8385 89.2964L92.8528 86.4226L67.7509 100.92L67.7677 100.926V129.674L72.7198 132.537V103.794H72.7254L75.1174 102.41" fill="white"/>
<path d="M98.8964 101.004L73.6656 86.4394L68.6857 89.3131L93.9164 103.878L93.8771 103.9V132.587L98.8964 129.691V101.004Z" fill="white"/>
<path d="M78.8598 94.8142C77.0448 95.3576 74.9386 96.702 73.8518 98.1025C75.7789 99.2621 77.028 100.31 77.028 100.31C77.028 100.31 79.829 97.0213 82.8204 96.702C81.0838 95.2399 79.6274 94.8142 79.6274 94.8142H78.8598Z" fill="#E6EEF5"/>
<path d="M77.6772 93.4809C75.8622 94.0243 73.7558 95.3687 72.6691 96.7692C74.5961 97.9288 75.8454 98.9764 75.8454 98.9764C75.8454 98.9764 78.6463 95.688 81.6376 95.3687C79.9011 93.9067 78.4446 93.4809 78.4446 93.4809H77.6772Z" fill="white"/>
<path d="M82.6911 92.7751C82.6911 92.7751 84.45 90.6352 85.548 92.1141C86.6459 93.5986 91.4804 96.9709 92.7688 96.2259C94.7967 95.0495 91.8613 98.9148 91.8053 98.9708C91.7493 99.0324 87.8503 99.3069 87.7719 99.2509C87.6878 99.1949 81.6435 95.3632 81.6435 95.3632C81.6435 95.3632 74.5684 91.369 74.6524 91.369C74.7364 91.369 71.028 86.6467 71 86.5627C70.972 86.4787 71.1344 83.5993 71.1344 83.5993C71.1344 83.5993 73.5488 83.2968 73.6328 83.3528C73.7169 83.4089 76.6523 87.3861 76.6523 87.3861L82.6911 92.7751Z" fill="white"/>
<path d="M95.8385 92.5791C94.735 90.5288 93.3737 89.2852 91.7884 88.8931C89.5533 88.3385 87.9288 89.2852 85.6656 90.4336C85.1839 90.6521 84.3099 91.2458 84.3099 91.2458C83.3296 89.5597 82.3942 87.9968 81.4586 86.5011C81.2682 86.193 81.0833 85.8849 80.8985 85.5824C80.1702 84.378 79.4251 83.1288 78.4392 82.0644C77.5261 81.0729 76.1537 80.6919 75.0221 81.1289C74.9717 81.1457 74.9213 81.1738 74.8709 81.1906L74.8036 81.2241C74.77 81.2409 74.742 81.2577 74.7084 81.2745L71.4201 82.9607C71.4201 82.9607 72.5573 83.2128 73.4199 83.4089C73.4143 83.4929 73.4031 83.5713 73.4031 83.6553C73.3975 83.8346 73.4087 84.0083 73.4256 84.1819C73.4368 84.2548 73.4368 84.3276 73.4536 84.4004C73.6385 84.5012 73.8065 84.6413 73.9577 84.7981C74.8428 85.7616 75.5543 86.938 76.2377 88.0808C76.4282 88.3945 76.6186 88.7082 76.8091 89.0219C77.05 89.4085 77.2909 89.795 77.5261 90.1927C78.3664 90.7697 79.8901 94.7974 79.8901 94.7974C80.8648 95.3576 82.1196 96.2483 82.803 96.7917C83.212 97.1166 83.6601 97.3855 84.0859 97.688C86.6683 99.531 88.713 100.444 90.2647 100.444C90.8529 100.444 91.3683 100.315 91.8165 100.052C91.8277 100.046 91.8388 100.035 91.8556 100.024C91.8556 100.024 95.2055 98.3098 95.2111 98.3098C96.5275 97.5535 97.4631 95.6041 95.8385 92.5791ZM91.0994 98.7803C90.4944 99.1276 88.8867 99.2957 84.9486 96.4892C83.7218 95.6153 82.0971 94.5734 81.2065 93.9348C84.4723 91.8397 88.4048 89.9182 91.1553 95.0159C91.9844 96.5564 91.962 97.6376 91.5979 98.2706C91.4691 98.4947 91.2899 98.6627 91.0994 98.7803Z" fill="#E6EEF5"/>
<path d="M75.7443 84.7253C75.4866 84.35 75.2514 84.0307 75.0441 83.8066C74.6128 83.3417 74.0806 83.0168 73.5204 82.8375C72.893 82.6414 72.2265 82.6415 71.6271 82.8712C70.6299 83.2577 70.0305 84.1987 70.008 85.3975C70.008 85.5712 70.0193 85.7449 70.0305 85.9185C70.5907 91.5316 77.6322 93.7107 80.8084 95.3576L75.7443 84.7253ZM81.7328 94.3045C80.6012 93.6883 80.2651 92.4279 79.8561 91.7948C79.3015 90.9266 78.3156 89.0668 77.3185 87.319L81.7328 94.3045ZM71.4926 85.7841C71.4814 85.6608 71.4758 85.5432 71.4758 85.4199C71.4814 84.9998 71.6046 84.4508 72.148 84.2436C72.2936 84.1876 72.4449 84.1595 72.6074 84.1595C72.8931 84.1595 73.19 84.2436 73.4589 84.4004C73.6437 84.5013 73.8117 84.6413 73.963 84.7982C74.8481 85.7617 75.5595 86.938 76.243 88.0808C76.4334 88.3945 76.6239 88.7083 76.8144 89.022C77.0552 89.4085 77.2961 89.795 77.5314 90.1927C78.0804 91.089 78.6294 92.0133 79.2008 92.9824C75.8285 91.4923 71.8567 89.4309 71.4926 85.7841Z" fill="#E6EEF5"/>
<path opacity="0.3" d="M134.967 134.565C135.925 135.119 137.342 135.237 138.496 134.929L141.997 136.951L136.787 139.959H135.505L135.51 140.699L121.422 148.833L117.943 146.827C118.537 146.149 118.341 145.304 117.36 144.732C116.374 144.166 114.907 144.049 113.736 144.396L110.257 142.391L124.318 134.274H125.651L125.645 133.506L130.827 130.515L134.328 132.537C133.796 133.192 134.009 134.01 134.967 134.565Z" fill="white"/>
<path d="M138.491 130.016C137.337 130.33 135.92 130.207 134.962 129.652C134.004 129.103 133.796 128.285 134.334 127.619L130.833 125.596L125.646 128.588L125.651 129.181C125.769 129.086 125.937 129.075 126.077 129.153L127.052 129.714C127.237 129.826 127.304 130.061 127.192 130.251C127.119 130.375 126.99 130.447 126.856 130.447C126.788 130.447 126.721 130.431 126.66 130.391L125.685 129.831C125.517 129.736 125.45 129.529 125.517 129.355H124.318L110.257 137.472L113.736 139.478C114.907 139.136 116.38 139.248 117.361 139.814C118.346 140.385 118.543 141.231 117.943 141.909L121.422 143.914L123.976 142.441L129.376 139.321L135.511 135.786L135.505 135.349C135.466 135.366 135.421 135.372 135.382 135.372C135.315 135.372 135.247 135.355 135.186 135.321L134.217 134.761C134.026 134.649 133.964 134.408 134.071 134.223C134.183 134.033 134.424 133.971 134.609 134.077L135.578 134.638C135.729 134.727 135.796 134.89 135.768 135.047H136.788L141.992 132.038L138.491 130.016ZM130.217 131.994C130.144 132.122 130.01 132.19 129.875 132.19C129.808 132.19 129.741 132.173 129.679 132.139L128.167 131.265C127.982 131.159 127.92 130.918 128.026 130.733C128.133 130.543 128.374 130.481 128.559 130.588L130.071 131.461C130.262 131.568 130.323 131.809 130.217 131.994ZM133.242 133.741C133.169 133.87 133.034 133.937 132.9 133.937C132.833 133.937 132.766 133.921 132.704 133.887L131.191 133.013C131.007 132.907 130.939 132.666 131.051 132.475C131.158 132.29 131.399 132.229 131.584 132.335L133.096 133.204C133.287 133.316 133.348 133.556 133.242 133.741Z" fill="#007AFF"/>
<path d="M118.369 135.724C119.159 135.265 120.481 135.265 121.322 135.747C122.19 136.245 122.156 136.996 121.355 137.455C120.554 137.915 119.249 137.909 118.414 137.427C117.574 136.94 117.58 136.178 118.369 135.724ZM123.798 139.472L121.848 133.837L122.957 133.198L124.896 138.839L123.798 139.472ZM120.465 136.929C120.767 136.755 120.739 136.492 120.386 136.285C120.044 136.088 119.596 136.077 119.294 136.251C118.991 136.425 119.002 136.688 119.344 136.89C119.703 137.097 120.162 137.102 120.465 136.929ZM125.389 135.231C126.178 134.772 127.501 134.772 128.341 135.254C129.209 135.752 129.175 136.503 128.374 136.962C127.573 137.422 126.268 137.416 125.433 136.934C124.593 136.453 124.599 135.691 125.389 135.231ZM127.484 136.441C127.786 136.268 127.758 136.004 127.405 135.797C127.063 135.601 126.615 135.59 126.313 135.764C126.01 135.937 126.022 136.201 126.363 136.402C126.722 136.609 127.181 136.615 127.484 136.441Z" fill="white"/>
<path d="M241.895 83.4145C241.895 84.294 241.43 85.1062 240.662 85.5431C222.227 96.1866 209.415 103.648 208.491 103.66C207.981 103.66 207.477 103.486 207.242 103.329C207.174 103.29 190.218 93.509 190.156 93.4585C189.467 93.016 189.041 92.2374 189.041 91.4083L189.047 76.8099C189.047 75.9304 189.512 75.1182 190.274 74.6812C205.219 66.0432 206.721 65.2645 220.893 57.0746C221.829 56.5368 222.977 56.5368 223.918 57.0746C235.755 63.8976 225.028 57.7132 240.657 66.721C241.29 67.0851 241.839 67.6845 241.85 68.4015C241.934 73.5272 241.9 64.1385 241.895 83.4145Z" fill="#998AF6"/>
<path d="M241.894 73.1126C241.894 75.2973 241.889 78.5464 241.894 83.4144C241.894 84.2939 241.429 85.1061 240.662 85.5487C222.17 96.2258 209.392 103.654 208.49 103.665L208.507 92.2821V91.4362L208.513 88.1591V88.1535C208.513 87.2068 209.023 86.3329 209.846 85.8624C226.321 76.3505 228.629 75.1012 240.807 68.0709C241.2 67.8413 241.681 68.0261 241.849 68.4014C241.888 68.6199 241.894 68.6647 241.894 72.2667V73.1126Z" fill="#8076F6"/>
<path d="M208.512 88.1536V88.1592L208.506 91.4363V92.2822L208.49 103.665C208.097 103.665 207.7 103.576 207.347 103.385L200.283 99.3069L196.462 97.0998L190.155 93.4642C189.561 93.0776 189.158 92.4446 189.068 91.7332V76.6698C189.068 76.0985 189.679 75.7511 190.172 76.0256L196.462 79.6612L200.283 81.8684L205.61 84.9438L207.257 85.9017C208.036 86.3834 208.512 87.2349 208.512 88.1536Z" fill="#5E63D2"/>
<path d="M241.893 72.2667V73.1126L208.708 92.2261C208.652 92.2653 208.579 92.2821 208.512 92.2821H208.506C208.439 92.2821 208.378 92.2653 208.322 92.2317L189.068 81.2409V80.4006C189.135 80.4006 189.197 80.4174 189.259 80.451L208.506 91.4362H208.512L241.697 72.3227C241.759 72.2835 241.826 72.2667 241.893 72.2667Z" fill="#6360F6"/>
<path d="M229.721 60.4188L196.463 79.6555V97.0996L200.289 99.3068V81.8682L233.57 62.6315L229.721 60.4188Z" fill="white"/>
<path d="M208.323 64.3122L204.463 66.5193L223.93 77.7566V95.1503L227.8 92.9151V75.5382L208.323 64.3122Z" fill="white"/>
<path d="M160.674 131.069L159.514 132.089L157.61 130.756L158.08 129.669L160.674 131.069Z" fill="#00325C"/>
<path d="M175.498 122.739L174.344 123.765L172.439 122.431L172.91 121.344L175.498 122.739Z" fill="#00325C"/>
<path d="M182.051 118.762L180.897 119.787L178.987 118.448L179.463 117.367L182.051 118.762Z" fill="#00325C"/>
<path d="M188.745 110.365V113.911L157.28 131.719L146.384 125.434L153.303 120.874L159.7 117.518L165.251 114.286L188.745 110.365Z" fill="#3C5582"/>
<path d="M183.873 118.158C184.684 116.772 184.691 115.269 183.89 114.8C183.088 114.332 181.782 115.076 180.972 116.462C180.161 117.848 180.154 119.352 180.955 119.82C181.756 120.288 183.063 119.545 183.873 118.158Z" fill="#004680"/>
<path d="M183.08 117.695C183.449 117.064 183.453 116.381 183.09 116.169C182.726 115.957 182.133 116.295 181.765 116.926C181.396 117.556 181.392 118.239 181.755 118.452C182.118 118.664 182.712 118.325 183.08 117.695Z" fill="#8699B8"/>
<path d="M177.341 122.149C178.152 120.762 178.159 119.259 177.358 118.79C176.557 118.322 175.25 119.066 174.44 120.452C173.629 121.838 173.622 123.342 174.423 123.81C175.224 124.279 176.531 123.535 177.341 122.149Z" fill="#004680"/>
<path d="M176.549 121.685C176.917 121.055 176.921 120.371 176.558 120.159C176.195 119.947 175.602 120.286 175.233 120.916C174.865 121.546 174.86 122.229 175.224 122.442C175.587 122.654 176.18 122.315 176.549 121.685Z" fill="#8699B8"/>
<path d="M162.497 130.463C163.308 129.076 163.315 127.573 162.514 127.104C161.713 126.636 160.406 127.38 159.596 128.766C158.785 130.152 158.778 131.656 159.579 132.124C160.381 132.593 161.687 131.849 162.497 130.463Z" fill="#004680"/>
<path d="M161.704 129.999C162.073 129.369 162.077 128.685 161.714 128.473C161.35 128.261 160.757 128.6 160.389 129.23C160.02 129.86 160.016 130.543 160.379 130.756C160.742 130.968 161.336 130.629 161.704 129.999Z" fill="#8699B8"/>
<path d="M154.631 108.595V105.189C154.631 104.164 155.253 102.97 156.026 102.528L176.73 90.5735C177.038 90.3943 177.324 90.3718 177.554 90.467L177.627 90.411L188.124 96.6347C188.214 96.6627 188.298 96.7187 188.371 96.7803L188.388 96.7915L188.382 96.7972C188.601 96.9988 188.741 97.3461 188.741 97.8223V110.987L165.252 124.549V115.11L154.631 108.595Z" fill="#539EF0"/>
<path d="M171.055 106.169L166.64 108.718C165.873 109.16 165.245 110.354 165.245 111.379V124.543L188.734 110.981V97.8167C188.734 96.7915 188.112 96.321 187.339 96.7635L175.374 103.671" fill="#458AD6"/>
<path d="M176.747 106.219L172.853 112.084C172.624 112.426 172.624 112.824 172.853 112.908L176.747 114.275C176.965 114.353 177.296 113.983 177.296 113.659V111.687C177.296 111.603 177.357 111.502 177.43 111.457L181.934 108.858C182.18 108.712 182.382 108.365 182.382 108.079V105.906C182.382 105.62 182.18 105.508 181.934 105.648L177.43 108.247C177.357 108.292 177.296 108.258 177.296 108.174V106.202C177.296 105.878 176.965 105.889 176.747 106.219Z" fill="white"/>
<path d="M164.843 114.863L162.042 116.454C161.078 117.003 160.356 117.888 160.02 118.947L157.286 127.478V131.725L146.39 125.439V120.644L150.177 110.762L154.423 108.174L164.843 114.863Z" fill="#495E82"/>
<path d="M156.86 124.095L159.152 117.199L150.928 112.454L148.295 119.182L156.86 124.095Z" fill="#8699B8"/>
<path d="M154.933 128.665C155.302 128.449 155.298 127.757 154.925 127.119C154.552 126.48 153.951 126.137 153.582 126.353C153.213 126.568 153.217 127.261 153.59 127.899C153.963 128.537 154.565 128.88 154.933 128.665Z" fill="#8699B8"/>
<path d="M149.269 125.65C149.638 125.434 149.634 124.742 149.261 124.104C148.887 123.465 148.286 123.123 147.918 123.338C147.549 123.554 147.553 124.246 147.926 124.884C148.299 125.522 148.9 125.865 149.269 125.65Z" fill="#8699B8"/>
<path d="M162.977 122.868L159.722 124.616L161.42 119.776C161.79 118.717 162.512 117.815 163.464 117.221L164.232 116.74L164.221 122.19" fill="#8699B8"/>
<path d="M90.2212 14.8869C91.969 19.6597 92.7757 22.4159 96.4057 23.4914C100.036 24.567 102.12 24.4997 103.867 28.8692C105.682 28.1297 107.027 27.5919 107.027 27.5919C107.027 27.5919 105.817 24.7014 102.59 23.1553C99.3635 21.6091 97.1451 22.2814 95.6662 19.1892C94.1873 16.097 93.6496 13.1168 93.6496 13.1168L90.2212 14.8869Z" fill="#584AF8"/>
<path d="M83.7621 49.3607L86.367 51.2653C86.4006 51.2261 88.2884 48.6268 90.6972 49.2822C93.2853 49.9881 94.6577 50.3466 96.383 49.7976C98.1084 49.2487 98.2148 48.9014 98.2148 48.9014L95.7948 47.781C95.7948 47.781 95.0274 48.9518 93.7782 48.5484C92.529 48.1451 90.1593 46.8679 88.3443 46.9407C86.1428 47.0415 83.7621 49.3607 83.7621 49.3607Z" fill="#716EF7"/>
<path d="M62.9955 68.7655L60.7156 72.5804C60.7716 72.6252 64.5752 74.8714 63.987 78.255C63.354 81.8906 63.0403 83.8176 64.015 86.1088C64.9898 88.3999 65.4828 88.5064 65.4828 88.5064L66.704 85.0445C66.704 85.0445 64.9953 84.1426 65.3875 82.378C65.7796 80.619 67.2194 77.1963 66.8889 74.7202C66.4855 71.7232 62.9955 68.7655 62.9955 68.7655Z" fill="#7560F6"/>
<path d="M171.688 20.7017L173.974 18.9483C173.974 18.9483 175.329 20.444 177.279 18.9483C179.228 17.4526 181.458 16.069 184.595 17.5087C187.732 18.9483 189.507 20.192 189.507 20.192L186.572 22.7912C186.572 22.7912 184.169 19.7102 181.603 19.3461C179.038 18.982 177.9 20.1639 177.452 20.4216C176.999 20.6737 174.231 22.0574 172.96 21.3796C171.688 20.7017 171.688 20.7017 171.688 20.7017Z" fill="#69AEEE"/>
<path d="M178.757 82.238L176.656 83.1903C176.656 83.1903 175.866 81.7786 174.08 82.5964C172.287 83.4143 170.298 84.0922 168.114 82.4004C165.929 80.7142 164.764 79.4202 164.764 79.4202L167.525 77.9245C167.525 77.9245 168.842 80.7591 170.78 81.5097C172.718 82.2604 173.816 81.5377 174.214 81.4201C174.612 81.3024 177.02 80.7198 177.889 81.4817C178.757 82.2379 178.757 82.238 178.757 82.238Z" fill="#4959EB"/>
<path d="M116.662 57.926L114.561 58.8783C114.561 58.8783 113.771 57.4666 111.984 58.2845C110.192 59.1024 108.203 59.7801 106.018 58.0884C103.833 56.4022 102.668 55.1082 102.668 55.1082L105.43 53.6125C105.43 53.6125 106.746 56.4471 108.685 57.1977C110.623 57.9484 111.721 57.2257 112.119 57.1081C112.516 56.9904 114.925 56.4079 115.793 57.1697C116.662 57.926 116.662 57.926 116.662 57.926Z" fill="#8B81F9"/>
<path d="M110.084 110.791C109.899 110.897 109.748 110.813 109.748 110.595V106.729C109.748 105.839 109.446 105.172 108.891 104.858C108.342 104.545 107.608 104.617 106.83 105.071C105.222 106.001 103.917 108.253 103.917 110.102V113.967C103.917 114.18 103.766 114.443 103.575 114.55C103.39 114.656 103.239 114.572 103.239 114.353V110.488C103.239 108.214 104.852 105.435 106.83 104.293C107.788 103.738 108.689 103.648 109.367 104.035C110.045 104.421 110.42 105.239 110.42 106.343V110.208C110.42 110.421 110.269 110.679 110.084 110.791Z" fill="white"/>
<path d="M99.6312 112.802L97.1328 134.867L117.288 123.832L113.871 105.222L99.6312 112.802Z" fill="#303FC9"/>
<path d="M105.071 116.084L105.127 115.547L103.239 113.715L99.6312 112.802L97.1328 134.867L100.533 135.444L102.628 137.612L104.656 119.742" fill="#505FE6"/>
<path d="M119.366 107.973L116.24 106.875L113.87 105.222L115.685 115.367L122.783 126.582L119.366 107.973Z" fill="#505FE6"/>
<path d="M104.785 118.572L102.628 137.612L122.784 126.582L119.367 107.973L105.127 115.547L105.032 116.398" fill="#809CFF"/>
<path d="M109.425 119.716C109.772 119.123 109.776 118.48 109.434 118.28C109.092 118.08 108.534 118.399 108.187 118.992C107.841 119.585 107.837 120.227 108.179 120.427C108.521 120.627 109.079 120.309 109.425 119.716Z" fill="#303FC9"/>
<path d="M116.852 115.426C117.198 114.833 117.202 114.19 116.861 113.991C116.519 113.791 115.96 114.109 115.614 114.702C115.267 115.295 115.263 115.938 115.605 116.138C115.947 116.338 116.505 116.019 116.852 115.426Z" fill="#303FC9"/>
<path d="M116.179 115.429C115.966 115.552 115.792 115.451 115.792 115.211V110.824C115.792 109.81 115.45 109.06 114.823 108.701C114.201 108.343 113.367 108.432 112.487 108.942C110.666 109.995 109.182 112.555 109.182 114.645V119.031C109.182 119.277 109.008 119.574 108.795 119.692C108.583 119.815 108.409 119.714 108.409 119.474V115.087C108.409 112.51 110.235 109.357 112.487 108.057C113.574 107.43 114.599 107.323 115.366 107.766C116.139 108.203 116.56 109.133 116.56 110.382V114.768C116.56 115.009 116.392 115.306 116.179 115.429Z" fill="white"/>
<defs>
<linearGradient id="paint0_linear" x1="143.81" y1="176.83" x2="143.81" y2="24.3112" gradientUnits="userSpaceOnUse">
<stop offset="0.21" stop-color="white" stop-opacity="0"/>
<stop offset="1" stop-color="white" stop-opacity="0.2"/>
</linearGradient>
<linearGradient id="paint1_linear" x1="126.35" y1="76.9516" x2="127.688" y2="64.6087" gradientUnits="userSpaceOnUse">
<stop offset="0.00337838" stop-color="#007AFF" stop-opacity="0"/>
<stop offset="1" stop-color="#4190F5"/>
</linearGradient>
<linearGradient id="paint2_linear" x1="155.685" y1="67.1779" x2="156.796" y2="56.935" gradientUnits="userSpaceOnUse">
<stop offset="0.00337838" stop-color="#007AFF" stop-opacity="0"/>
<stop offset="1" stop-color="#4190F5"/>
</linearGradient>
<linearGradient id="paint3_linear" x1="148.914" y1="67.5468" x2="149.535" y2="61.8209" gradientUnits="userSpaceOnUse">
<stop offset="0.00337838" stop-color="#007AFF" stop-opacity="0"/>
<stop offset="1" stop-color="#007AFF"/>
</linearGradient>
<linearGradient id="paint4_linear" x1="119.48" y1="63.8972" x2="119.888" y2="60.1278" gradientUnits="userSpaceOnUse">
<stop offset="0.00337838" stop-color="#007AFF" stop-opacity="0"/>
<stop offset="1" stop-color="#4190F5"/>
</linearGradient>
<linearGradient id="paint5_linear" x1="125.406" y1="4.19206" x2="130.453" y2="14.2867" gradientUnits="userSpaceOnUse">
<stop stop-color="#4190F5"/>
<stop offset="1" stop-color="#4190F5" stop-opacity="0"/>
</linearGradient>
<linearGradient id="paint6_linear" x1="148.479" y1="2.02889" x2="144.874" y2="14.2867" gradientUnits="userSpaceOnUse">
<stop stop-color="#4190F5"/>
<stop offset="1" stop-color="#4190F5" stop-opacity="0"/>
</linearGradient>
<linearGradient id="paint7_linear" x1="137.575" y1="1.69861" x2="137.384" y2="12.8429" gradientUnits="userSpaceOnUse">
<stop stop-color="#4190F5"/>
<stop offset="1" stop-color="#4190F5" stop-opacity="0"/>
</linearGradient>
<linearGradient id="paint8_linear" x1="122.044" y1="40.0932" x2="152.942" y2="40.0932" gradientUnits="userSpaceOnUse">
<stop stop-color="#7AB4F4"/>
<stop offset="1" stop-color="#DFEDFA"/>
</linearGradient>
<linearGradient id="paint9_linear" x1="123.897" y1="41.1635" x2="154.799" y2="41.1635" gradientUnits="userSpaceOnUse">
<stop stop-color="#7AB4F4"/>
<stop offset="1" stop-color="#0084FF"/>
</linearGradient>
<linearGradient id="paint10_linear" x1="139.177" y1="47.686" x2="151.346" y2="47.686" gradientUnits="userSpaceOnUse">
<stop stop-color="#007AFF"/>
<stop offset="1" stop-color="#60A2F0"/>
</linearGradient>
<linearGradient id="paint11_linear" x1="126.221" y1="36.7047" x2="139.157" y2="36.7047" gradientUnits="userSpaceOnUse">
<stop stop-color="#007AFF"/>
<stop offset="1" stop-color="#60A2F0"/>
</linearGradient>
<linearGradient id="paint12_linear" x1="99.3851" y1="135.96" x2="92.5546" y2="99.6346" gradientUnits="userSpaceOnUse">
<stop stop-color="#5A69ED"/>
<stop offset="1" stop-color="#76B3FB"/>
</linearGradient>
<linearGradient id="paint13_linear" x1="66.4498" y1="134.694" x2="75.764" y2="97.7476" gradientUnits="userSpaceOnUse">
<stop stop-color="#665AED"/>
<stop offset="1" stop-color="#76ABFB"/>
</linearGradient>
</defs>
</svg>
