<svg width="1050" height="1056" viewBox="0 0 1050 1056" fill="none" xmlns="http://www.w3.org/2000/svg">
<g filter="url(#filter0_d)">
<ellipse cx="525" cy="512" rx="393" ry="396" fill="#007AFF"/>
</g>
<path d="M423.494 473.691C423.494 485.359 414.062 494.818 402.426 494.818C390.79 494.818 381.358 485.359 381.358 473.691C381.358 462.023 390.79 452.564 402.426 452.564C414.062 452.564 423.494 462.023 423.494 473.691Z" fill="#F2F2F7"/>
<path d="M376.59 349.112L396.13 399.661C400.153 410.068 395.15 421.791 384.865 426.058C374.249 430.462 362.097 425.247 357.944 414.505L338.404 363.956C333.201 350.498 343.103 336 357.497 336C365.95 336 373.534 341.209 376.59 349.112Z" fill="#F2F2F7"/>
<path d="M592.458 577.099C581.561 572.151 576.755 559.261 581.741 548.358L673.462 347.798C676.75 340.609 683.914 336 691.801 336C706.393 336 716.159 351.053 710.247 364.43L621.097 566.151C616.239 577.143 603.38 582.059 592.458 577.099Z" fill="#F2F2F7"/>
<path d="M507.424 760C497.827 760 489.217 754.087 485.748 745.113L408.988 546.548C404.965 536.141 409.968 524.418 420.253 520.151C430.87 515.747 443.021 520.962 447.174 531.704L502.549 674.952C506.236 684.489 519.51 684.979 523.887 675.74L551.239 617.998C556.435 607.03 569.434 602.256 580.465 607.265C591.663 612.35 596.613 625.59 591.508 636.805L541.632 746.368C537.852 754.672 529.586 760 520.483 760H507.424Z" fill="#F2F2F7"/>
<path d="M505.847 554.599C509.554 564.167 522.892 564.605 527.217 555.302L589.009 422.288C593.795 411.987 589.494 399.738 579.328 394.716C568.952 389.59 556.399 393.917 551.359 404.357L518.168 473.107L512.456 458.315C512.41 458.269 512.392 458.195 512.368 458.127C512.361 458.106 512.353 458.086 512.343 458.067C512.337 458.055 512.33 458.043 512.322 458.032C512.317 458.026 512.311 458.019 512.305 458.013L470.241 349.138C467.181 341.219 459.583 336 451.115 336C436.693 336 426.775 350.53 431.994 364.012L505.847 554.599Z" fill="#F2F2F7"/>
<path d="M579.572 347.292C574.828 356.876 578.749 368.503 588.321 373.232L589.686 373.906C599.444 378.727 611.246 374.554 615.832 364.662C622.041 351.304 612.317 336 597.62 336C589.948 336 582.945 340.381 579.572 347.292Z" fill="#F2F2F7"/>
<defs>
<filter id="filter0_d" x="0" y="0" width="1050" height="1056" filterUnits="userSpaceOnUse" color-interpolation-filters="sRGB">
<feFlood flood-opacity="0" result="BackgroundImageFix"/>
<feColorMatrix in="SourceAlpha" type="matrix" values="0 0 0 0 0 0 0 0 0 0 0 0 0 0 0 0 0 0 127 0" result="hardAlpha"/>
<feMorphology radius="32" operator="dilate" in="SourceAlpha" result="effect1_dropShadow"/>
<feOffset dy="16"/>
<feGaussianBlur stdDeviation="50"/>
<feColorMatrix type="matrix" values="0 0 0 0 0.0392157 0 0 0 0 0.517647 0 0 0 0 1 0 0 0 0.3 0"/>
<feBlend mode="normal" in2="BackgroundImageFix" result="effect1_dropShadow"/>
<feBlend mode="normal" in="SourceGraphic" in2="effect1_dropShadow" result="shape"/>
</filter>
</defs>
</svg>
