<svg width="11" height="11" viewBox="0 0 11 11" fill="none" xmlns="http://www.w3.org/2000/svg">
<path d="M2.53717 3.57217C2.53717 3.87488 2.26048 4.12028 1.91916 4.12028C1.57785 4.12028 1.30115 3.87488 1.30115 3.57217C1.30115 3.26945 1.57785 3.02406 1.91916 3.02406C2.26048 3.02406 2.53717 3.26945 2.53717 3.57217Z" fill="#F2F2F7"/>
<path d="M1.1613 0.340181L1.73449 1.65159C1.85249 1.92157 1.70574 2.22572 1.40405 2.33641C1.09263 2.45067 0.736181 2.31538 0.61437 2.03669L0.0411763 0.725282C-0.111428 0.376139 0.179025 0 0.601236 0C0.849196 0 1.07167 0.135133 1.1613 0.340181Z" fill="#F2F2F7"/>
<path d="M7.49344 6.25493C7.1738 6.12656 7.03282 5.79214 7.17908 5.50927L9.86955 0.30609C9.966 0.119573 10.1761 0 10.4075 0C10.8355 0 11.122 0.390515 10.9486 0.737564L8.33352 5.9709C8.19102 6.25606 7.81381 6.3836 7.49344 6.25493Z" fill="#F2F2F7"/>
<path d="M4.99911 11C4.71759 11 4.46502 10.8466 4.36327 10.6138L2.11165 5.46233C1.99365 5.19234 2.1404 4.88819 2.4421 4.7775C2.75352 4.66324 3.10996 4.79853 3.23177 5.07722L4.85611 8.79355C4.96426 9.04098 5.35364 9.05371 5.48202 8.81401L6.28435 7.31599C6.43676 7.03144 6.81807 6.90759 7.14164 7.03754C7.47013 7.16947 7.61532 7.51295 7.46557 7.80389L6.00254 10.6464C5.89165 10.8618 5.6492 11 5.38218 11H4.99911Z" fill="#F2F2F7"/>
<path d="M4.95283 5.6712C5.06159 5.91942 5.45284 5.9308 5.57969 5.68943L7.39227 2.23862C7.53265 1.97135 7.40649 1.65359 7.10828 1.52329C6.80393 1.39031 6.4357 1.50257 6.28787 1.7734L5.31427 3.55702L5.14671 3.17326C5.14536 3.17207 5.14484 3.17016 5.14414 3.1684C5.14392 3.16786 5.14368 3.16733 5.1434 3.16684C5.14322 3.16652 5.14301 3.16621 5.14278 3.16594C5.14263 3.16576 5.14247 3.16559 5.14229 3.16543L3.90839 0.340835C3.81865 0.1354 3.59578 0 3.34737 0C2.92434 0 2.63341 0.376961 2.78649 0.726716L4.95283 5.6712Z" fill="#F2F2F7"/>
<path d="M7.11546 0.292947C6.97628 0.541605 7.0913 0.843236 7.37209 0.965921L7.41211 0.983407C7.69835 1.10847 8.04456 1.00021 8.17907 0.743583C8.3612 0.397039 8.07595 0 7.64485 0C7.4198 0 7.21439 0.113666 7.11546 0.292947Z" fill="#F2F2F7"/>
</svg>
